<svg xmlns="http://www.w3.org/2000/svg" viewBox="0 0 24 24">
  <rect width="24" height="24" rx="5" fill="#0a0f1a"/>
  <path d="M17.8 19.2 16 11l3.5-3.5C21 6 21.5 4 21 3.5c-.5-.5-2.5 0-4 1.5L13.5 8.5 5.3 6.7c-.9-.2-1.8.3-2 1.2-.2.9.3 1.8 1.2 2l8 1.8-3.5 3.5-3.5-1c-.5-.2-1.1.1-1.3.6L3 17l4-1 1 4 2.2-1.2c.5-.3.7-.8.6-1.3l-1-3.5 3.5-3.5 1.8 8c.2.9 1.1 1.4 2 1.2.9-.2 1.4-1.1 1.2-2Z" fill="none" stroke="#00ffff" stroke-width="1.6" stroke-linecap="round" stroke-linejoin="round" transform="translate(12 12) scale(0.78) translate(-12 -12)"/>
</svg>
